# xmcd CD database file
#
# Track frame offsets:
#	150
#	22091
#	42310
#	66723
#	84902
#	108236
#	133214
#	151372
#	167146
#	182767
#	210130
#	230266
#
# Disc length: 3359 seconds
#
# Revision: 0
# Processed by: cddbd v1.5.2PL0 Copyright (c) Steve Scherf et al.
# Submitted via: CDex 1.51
#
DISCID=9e0d1d0c
DTITLE=Mark Selby - Nine Pound Hammer
DYEAR=2008
DGENRE=Blues
TTITLE0=Nine Pound Hammer
TTITLE1=I Should Know Better
TTITLE2=Cold One Closin' In
TTITLE3=Buck-Fifty and a Flat-Head Ford
TTITLE4=Leveler, Reveler
TTITLE5=Baby I Do
TTITLE6=A Good Friend to the Blues
TTITLE7=Aure Hope It Ain't a Train
TTITLE8=Dangerous Game
TTITLE9=I Stole Your Love
TTITLE10=Tell the Truth
TTITLE11=Guitar in the Rain
EXTD=YEAR: 2008
EXTT0=
EXTT1=
EXTT2=
EXTT3=
EXTT4=
EXTT5=
EXTT6=
EXTT7=
EXTT8=
EXTT9=
EXTT10=
EXTT11=
PLAYORDER=
